<svg xmlns="http://www.w3.org/2000/svg" xml:space="preserve" viewBox="0 0 512 512"><path d="M507 211c-1-1-14-11-42-11l-21 2c-6-36-36-54-37-55l-7-4-5 7c-6 9-10 20-13 31-5 20-2 40 9 56-13 7-34 9-38 9H16c-9 0-16 7-16 16 0 30 5 59 15 87 11 30 29 53 51 66 25 16 66 25 113 25 21 0 42-2 62-6 29-5 57-15 82-30 21-12 40-27 55-45 27-30 43-64 55-94h5c29 0 47-12 57-22 6-6 12-14 15-22l2-6-5-4z"/><path d="M47 236h45c3 0 4-1 4-4v-40c0-2-1-4-4-4H47c-2 0-4 2-4 4v40c0 3 2 4 4 4M110 236h45c2 0 4-1 4-4v-40c0-2-2-4-4-4h-45c-3 0-4 2-4 4v40c0 3 1 4 4 4M173 236h45c2 0 4-1 4-4v-40c0-2-2-4-4-4h-45c-2 0-4 2-4 4v40c0 3 2 4 4 4M235 236h46c2 0 3-1 3-4v-40c0-2-1-4-3-4h-46c-2 0-4 2-4 4v40c0 3 2 4 4 4M110 178h45c2 0 4-1 4-3v-41c0-2-2-4-4-4h-45c-3 0-4 2-4 4v41c0 2 1 3 4 3M173 178h45c2 0 4-1 4-3v-41c0-2-2-4-4-4h-45c-2 0-4 2-4 4v41c0 2 2 3 4 3M235 178h46c2 0 3-1 3-3v-41c0-2-1-4-3-4h-46c-2 0-4 2-4 4v41c0 2 2 3 4 3M235 120h46c2 0 3-1 3-3V76c0-2-1-4-3-4h-46c-2 0-4 2-4 4v41c0 2 2 3 4 3M298 236h46c2 0 3-1 3-4v-40c0-2-1-4-3-4h-46c-2 0-4 2-4 4v40c0 3 2 4 4 4"/></svg>