<svg xmlns="http://www.w3.org/2000/svg" viewBox="0 0 490 491"><path d="M246 491c-17 0-33-7-44-19L18 289a62 62 0 0 1 0-88L202 18c24-24 63-24 87 0l184 183c24 25 24 64 0 88L290 472a63 63 0 0 1-44 19zm0-470c-11 0-22 5-29 12L34 216a41 41 0 0 0 0 58l183 183a41 41 0 0 0 57 0l184-183a41 41 0 0 0 0-58L274 33c-7-7-18-12-28-12zm0 0"/><path d="M246 181a53 53 0 1 1 0-106 53 53 0 0 1 0 106zm0-85a32 32 0 1 0 0 64 32 32 0 0 0 0-64zM246 395a53 53 0 1 1 0-107 53 53 0 0 1 0 107zm0-86a32 32 0 1 0 0 64 32 32 0 0 0 0-64zM352 288a53 53 0 1 1 0-107 53 53 0 0 1 0 107zm0-85a32 32 0 1 0 0 64 32 32 0 0 0 0-64zm0 0"/><path d="m169 66 15-15 39 39-15 15zM268 166l15-16 47 47-16 15zM235 171h21v128h-21zm0 0"/></svg>