<svg xmlns="http://www.w3.org/2000/svg" viewBox="0 0 24 24"><path d="M14 0v3l1-2V0a1 1 0 0 0-1 0zm2 0v2h-1l-1 1v1h1l-2-1h-2a11 11 0 0 0-2 0H8a12 12 0 0 0-1 0H6v1H5a2 2 0 0 0-1 1 4 4 0 0 1-1 1H1v1H0v2h1v1h1v1l1-1v2l1-1c4-1 8 2 8 6l-1-1-1 1v-1a4 4 0 0 1-1 2l-1-1a1 1 0 0 1 0-1v-1H6c-1 1 0 4 1 4l-1 1a6 6 0 0 0 2 0 6 6 0 0 0 1 0c3 0 5-2 6-5v3h-1v1a6 6 0 0 1-2 2v1a14 14 0 0 0 1-1h2a10 10 0 0 1-4 3h2a10 10 0 0 0 6-5 10 10 0 0 1-1 4 10 10 0 0 0 1-1 10 10 0 0 0 3-6v3c4-6 0-12-1-14l-1 1a5 5 0 0 1 0 1l-1 1a4 4 0 0 1-1 0v1a4 4 0 0 1-1 0 5 5 0 0 1-1 0 3 3 0 0 1-1 0h1a4 4 0 0 0 0-1 4 4 0 0 0 1 0 7 7 0 0 0 1-1l1-1V4a4 4 0 0 0 0-1l-1-1V1h-1a2 2 0 0 0-1-1Z"/></svg>