<svg xmlns="http://www.w3.org/2000/svg" viewBox="0 0 32 32"><path d="m23 0-4 1-2-1-4 1-6-1-5 2C1 4 0 6 1 9v4l2 5 2 5 3 1 1-1 1 1h5v5l1 2 4 1 4-2 1-7 4-1 2-1 1-1-1-2h-3l3-7V4c-3-3-6-4-8-4zm0 1c2 0 5 0 7 3l1 3-1 3-4 9h4l1 1h-1l-1 2a7 7 0 0 1-5 0v5l-1 3-3 1-3-1-1-1v-7l-3 1h-2l-1-1v-1h1l2-1h1l-2-1-3 3-1 1-2-1-2-4-2-5-1-4 2-6 4-2 6 1 4-1h6zm0 1h-2l3 3a11 11 0 0 1 2 3v7l-1 3h1l3-8 1-3-1-2c-2-3-4-3-6-3zm-6 0-4 1-2 3-1 3h4l2 1c1 5-1 6-1 8v1l1 1a2 2 0 0 1 0 1 72 72 0 0 0 1 7l1 2h2l2-1 1-2a124 124 0 0 0 1-7l1-1v-1l-1-1-1-1v-1l-1-3V9l3-1-1-2c-2-2-4-4-7-4zM8 2H7L4 4C3 5 2 6 2 9l1 3 1 6 3 4h1l1-1 2-2-2-5 1-2V6l2-3a15 15 0 0 0-4-1zm16 7-1 1-1 2 2 3v1l1 1V9h-1zM13 9h-1a6 6 0 0 0-2 1v5c0 2 2 4 4 4v-2c1-1 2-2 1-6l-1-2h-1zm11 1v1l-1-1h1zm-11 0a2 2 0 0 1 1 0v1h-1v-1zm12 10v1h3l1-1h-4zm-10 0h-1l-1 1-1 1h-1 2l2-1v-1z"/></svg>