<svg xmlns="http://www.w3.org/2000/svg" xml:space="preserve" viewBox="0 0 512 512"><g fill-rule="evenodd" clip-rule="evenodd"><path d="m203 343 2-2a66 66 0 0 1-15 63c-15 17-36 23-45 18-9-6-5-29 13-47 18-20 45-32 45-32z"/><path d="M256 0a256 256 0 1 0 0 512 256 256 0 0 0 0-512zm83 227c-44 17-81 14-96 9-17-5-27-16-29-23-1-2-3-7 0-8 1-1 2-1 6 4s21 17 52 13c82-9 131-73 116-107-11-24-74-35-153 5-97 48-102 87-103 102-2 42 51 63 80 94l2 2c9-3 21-5 40-5 47-1 73 30 72 57-1 22-21 31-24 32-3 0-4 0-5-2l4-4c3-2 13-8 14-20 2-12-7-40-52-45-16-2-28-1-39 2 8 17 9 52-9 78a81 81 0 0 1-86 36c-11-3-28-26-13-57 13-30 70-59 78-63-26-23-91-54-100-101-3-13 3-45 43-82 33-31 79-54 121-69 72-26 147-11 159 35 11 44-28 98-78 117z"/></g></svg>