<svg xmlns="http://www.w3.org/2000/svg" xml:space="preserve" viewBox="0 0 512 512"><path d="M462 0H50C22 0 0 22 0 50v412c0 28 22 50 50 50h412c28 0 50-22 50-50V50c0-28-22-50-50-50zM297 284h-64v183h-51V284h-64v-41h179v41zm166 151a69 69 0 0 1-48 32c-22 4-47 4-69 0-11-2-21-5-29-10v-50a96 96 0 0 0 62 23c9 0 20-1 28-6 6-4 10-10 10-16 0-10-7-17-14-22-11-7-23-12-35-16-17-8-30-17-39-27a64 64 0 0 1-6-68c10-18 28-29 47-33a170 170 0 0 1 90 5v46l-12-6a102 102 0 0 0-57-8c-7 2-15 6-19 12l-3 9c0 4 1 8 3 11 5 7 14 12 22 16 14 7 28 12 42 20 13 7 24 18 30 32 3 7 4 15 4 24 0 13-2 23-7 32z"/></svg>