<svg xmlns="http://www.w3.org/2000/svg" xml:space="preserve" viewBox="0 0 512 512"><path d="M458 381c-8-7-21-5-28 4l-11 14a20 20 0 0 0 30 26l14-16c6-9 4-22-5-28zM492 287c-11-2-22 4-24 15l-5 18a20 20 0 1 0 39 12l5-21c2-11-4-22-15-24zM362 445l-16 8a20 20 0 1 0 16 36l20-9a20 20 0 1 0-20-35zM236 96v152l-73 73a20 20 0 0 0 28 28l79-79c4-4 6-9 6-14V96a20 20 0 1 0-40 0z"/><path d="M492 43c-11 0-20 9-20 20v56a257 257 0 1 0-216 393h1l22-1a20 20 0 0 0-4-40l-18 1h-1a216 216 0 1 1 186-326h-55a20 20 0 1 0 0 40h61a64 64 0 0 0 64-64V63c0-11-9-20-20-20z"/></svg>