<svg xmlns="http://www.w3.org/2000/svg" fill-rule="evenodd" clip-rule="evenodd" image-rendering="optimizeQuality" shape-rendering="geometricPrecision" text-rendering="geometricPrecision" viewBox="0 0 512 512"><path fill="#39ae41" d="M317 286c-10 4-16 19-22 27-3 4-7 4-12 2-36-14-64-38-84-72-4-5-3-9 1-14 6-7 14-15 15-25 4-21-24-87-61-57-105 86 177 314 228 191 14-35-49-59-65-52zm-61 181c-37 0-74-10-106-28-6-4-12-4-18-3l-70 19 25-53c3-8 2-16-2-23a212 212 0 1 1 171 88zm0-467A256 256 0 0 0 41 395L2 480a22 22 0 0 0 20 32c15 0 93-25 113-30A256 256 0 1 0 256 0z"/><g fill-rule="nonzero"/></svg>