<?xml version="1.0" encoding="UTF-8"?>
<!-- Generator: Adobe Illustrator 26.0.1, SVG Export Plug-In . SVG Version: 6.00 Build 0)  -->
<svg xmlns="http://www.w3.org/2000/svg" xmlns:xlink="http://www.w3.org/1999/xlink" version="1.1" id="Capa_1" x="0px" y="0px" viewBox="0 0 512 512" style="enable-background:new 0 0 512 512;" xml:space="preserve" width="512" height="512">
<g>
	<path d="M506.983,211.064c-1.362-1.075-14.333-10.893-41.71-10.893c-7.238,0-14.405,0.645-21.571,1.863   c-5.303-36.263-35.26-53.965-36.621-54.753l-7.31-4.228l-4.802,6.952c-6.02,9.388-10.463,19.708-13.043,30.53   c-4.873,20.711-1.935,40.133,8.6,56.759c-12.685,7.095-33.11,8.815-37.195,8.958H16c-8.815,0-15.981,7.167-15.981,15.91   c-0.358,29.526,4.587,58.909,14.763,86.644c11.61,30.458,28.881,52.889,51.384,66.649c25.226,15.408,66.148,24.223,112.587,24.223   c20.998,0.072,41.925-1.863,62.493-5.662c28.666-5.232,56.258-15.265,81.556-29.67c20.855-12.112,39.703-27.52,55.685-45.579   c26.731-30.243,42.641-63.926,54.466-93.883c1.577,0,3.153,0,4.73,0c29.24,0,47.228-11.682,57.189-21.5   c6.593-6.235,11.753-13.903,15.05-22.36l2.078-6.163L506.983,211.064z"/>
	<path d="M47.246,236.363h45.221c2.15,0,3.942-1.792,3.942-3.942l0,0v-40.276c0-2.15-1.72-3.942-3.942-3.942l0,0H47.246   c-2.15,0-3.942,1.792-3.942,3.942l0,0v40.276C43.304,234.571,45.096,236.363,47.246,236.363L47.246,236.363"/>
	<path d="M109.524,236.363h45.221c2.15,0,3.942-1.792,3.942-3.942l0,0v-40.276c0-2.15-1.72-3.942-3.942-3.942l0,0h-45.221   c-2.222,0-3.942,1.792-3.942,3.942v40.276C105.582,234.571,107.374,236.363,109.524,236.363"/>
	<path d="M172.805,236.363h45.221c2.15,0,3.942-1.792,3.942-3.942l0,0v-40.276c0-2.15-1.72-3.942-3.942-3.942l0,0h-45.221   c-2.15,0-3.942,1.792-3.942,3.942l0,0v40.276C168.863,234.571,170.583,236.363,172.805,236.363L172.805,236.363"/>
	<path d="M235.298,236.363h45.221c2.15,0,3.942-1.792,3.942-3.942v-40.276c0-2.222-1.792-3.942-3.942-3.942l0,0h-45.221   c-2.15,0-3.942,1.792-3.942,3.942l0,0v40.276C231.356,234.571,233.076,236.363,235.298,236.363L235.298,236.363"/>
	<path d="M109.524,178.456h45.221c2.15,0,3.942-1.792,3.942-3.942v-40.276c0-2.15-1.792-3.942-3.942-3.942l0,0h-45.221   c-2.15,0-3.942,1.792-3.942,3.942v40.276C105.582,176.665,107.374,178.456,109.524,178.456"/>
	<path d="M172.805,178.456h45.221c2.15,0,3.942-1.792,3.942-3.942v-40.276c0-2.15-1.792-3.942-3.942-3.942l0,0h-45.221   c-2.15,0-3.942,1.792-3.942,3.942l0,0v40.276C168.863,176.665,170.583,178.456,172.805,178.456"/>
	<path d="M235.298,178.456h45.221c2.222,0,3.942-1.792,3.942-3.942v-40.276c0-2.15-1.792-3.942-3.942-3.942h-45.221   c-2.15,0-3.942,1.792-3.942,3.942l0,0v40.276C231.356,176.665,233.076,178.456,235.298,178.456"/>
	<path d="M235.298,120.479h45.221c2.15,0,3.942-1.792,3.942-3.942V76.261c0-2.15-1.792-3.942-3.942-3.942h-45.221   c-2.15,0-3.942,1.792-3.942,3.942l0,0v40.276C231.356,118.759,233.076,120.479,235.298,120.479"/>
	<path d="M298.292,236.363h45.221c2.15,0,3.942-1.792,3.942-3.942v-40.276c0-2.222-1.792-3.942-3.942-3.942l0,0h-45.221   c-2.15,0-3.942,1.792-3.942,3.942l0,0v40.276C294.35,234.571,296.142,236.363,298.292,236.363"/>
</g>















</svg>
